HIERARCHY
ROOT hips
{
	OFFSET 0.000000 104.274902 0.000000
	CHANNELS 6 Xposition Yposition Zposition Xrotation Yrotation Zrotation
	JOINT spine
	{
		OFFSET 0.000000 10.181549 0.131524
		CHANNELS 6 Xposition Yposition Zposition Xrotation Yrotation Zrotation
		JOINT chest
		{
			OFFSET 0.000000 9.893990 -1.470706
			CHANNELS 3 Xrotation Yrotation Zrotation
			JOINT upperChest
			{
				OFFSET 0.000000 9.220787 -1.370637
				CHANNELS 3 Xrotation Yrotation Zrotation
				JOINT neck
				{
					OFFSET 0.000000 16.740372 -2.049022
					CHANNELS 6 Xposition Yposition Zposition Xrotation Yrotation Zrotation
					JOINT head
					{
						OFFSET 0.000000 9.617859 1.684976
						CHANNELS 6 Xposition Yposition Zposition Xrotation Yrotation Zrotation
						JOINT headEnd
						{
							OFFSET 0.000000 22.037384 7.501072
							CHANNELS 6 Xposition Yposition Zposition Xrotation Yrotation Zrotation
							End Site
							{
								OFFSET 0.000000 23.106567 -2.828246
							}
						}
					}
				}
				JOINT rightShoulder
				{
					OFFSET -4.570000 11.014877 -2.160840
					CHANNELS 6 Xposition Yposition Zposition Xrotation Yrotation Zrotation
					JOINT rightUpperArm
					{
						OFFSET -10.592867 -0.524796 -2.232105
						CHANNELS 3 Xrotation Yrotation Zrotation
						JOINT rightLowerArm
						{
							OFFSET -27.841497 0.000000 -0.000002
							CHANNELS 3 Xrotation Yrotation Zrotation
							JOINT rightHand
							{
								OFFSET -28.328812 0.000000 -0.000001
								CHANNELS 3 Xrotation Yrotation Zrotation
								JOINT rightThumbProximal
								{
									OFFSET -2.464798 -1.573990 2.681911
									CHANNELS 6 Xposition Yposition Zposition Xrotation Yrotation Zrotation
									JOINT rightThumbIntermediate
									{
										OFFSET -3.244781 -1.873383 1.873376
										CHANNELS 3 Xrotation Yrotation Zrotation
										JOINT rightThumbDistal
										{
											OFFSET -2.646263 -1.527817 1.527818
											CHANNELS 6 Xposition Yposition Zposition Xrotation Yrotation Zrotation
											JOINT rightHandThumb4
											{
												OFFSET -1.994591 -1.151581 1.151575
												CHANNELS 6 Xposition Yposition Zposition Xrotation Yrotation Zrotation
												End Site
												{
													OFFSET -1.860176 -1.142715 1.365483
												}
											}
										}
									}
								}
								JOINT rightIndexProximal
								{
									OFFSET -9.108299 -0.517883 2.259803
									CHANNELS 6 Xposition Yposition Zposition Xrotation Yrotation Zrotation
									JOINT rightIndexIntermediate
									{
										OFFSET -3.699997 0.000000 0.000000
										CHANNELS 3 Xrotation Yrotation Zrotation
										JOINT rightIndexDistal
										{
											OFFSET -2.850006 0.000000 0.000000
											CHANNELS 3 Xrotation Yrotation Zrotation
											JOINT rightHandIndex4
											{
												OFFSET -2.772194 0.000000 0.000000
												CHANNELS 3 Xrotation Yrotation Zrotation
												End Site
												{
													OFFSET -2.772202 0.000000 -0.000484
												}
											}
										}
									}
								}
								JOINT rightMiddleProximal
								{
									OFFSET -9.532501 0.000000 -0.000000
									CHANNELS 6 Xposition Yposition Zposition Xrotation Yrotation Zrotation
									JOINT rightMiddleIntermediate
									{
										OFFSET -3.699997 0.000000 0.000000
										CHANNELS 3 Xrotation Yrotation Zrotation
										JOINT rightMiddleDistal
										{
											OFFSET -2.949997 0.000000 0.000000
											CHANNELS 3 Xrotation Yrotation Zrotation
											JOINT rightHandMiddle4
											{
												OFFSET -2.946594 0.000000 0.000000
												CHANNELS 3 Xrotation Yrotation Zrotation
												End Site
												{
													OFFSET -2.946602 0.000000 -0.000982
												}
											}
										}
									}
								}
								JOINT rightRingProximal
								{
									OFFSET -9.103600 -0.043106 -1.865100
									CHANNELS 6 Xposition Yposition Zposition Xrotation Yrotation Zrotation
									JOINT rightRingIntermediate
									{
										OFFSET -3.379303 0.000000 0.000000
										CHANNELS 3 Xrotation Yrotation Zrotation
										JOINT rightRingDistal
										{
											OFFSET -2.889694 0.000000 0.000000
											CHANNELS 3 Xrotation Yrotation Zrotation
											JOINT rightHandRing4
											{
												OFFSET -2.638802 0.000000 0.000000
												CHANNELS 3 Xrotation Yrotation Zrotation
												End Site
												{
													OFFSET -2.638802 0.000000 0.004218
												}
											}
										}
									}
								}
								JOINT rightLittleProximal
								{
									OFFSET -8.076698 -0.486725 -3.806299
									CHANNELS 6 Xposition Yposition Zposition Xrotation Yrotation Zrotation
									JOINT rightLittleIntermediate
									{
										OFFSET -3.600006 0.000000 0.000000
										CHANNELS 3 Xrotation Yrotation Zrotation
										JOINT rightLittleDistal
										{
											OFFSET -2.099998 0.000000 0.000000
											CHANNELS 3 Xrotation Yrotation Zrotation
											JOINT rightHandPinky4
											{
												OFFSET -2.115791 0.000000 0.000000
												CHANNELS 3 Xrotation Yrotation Zrotation
												End Site
												{
													OFFSET -2.115799 0.000000 0.000174
												}
											}
										}
									}
								}
							}
						}
					}
				}
				JOINT leftShoulder
				{
					OFFSET 4.570400 11.014679 -2.160816
					CHANNELS 6 Xposition Yposition Zposition Xrotation Yrotation Zrotation
					JOINT leftUpperArm
					{
						OFFSET 10.592373 -0.524597 -2.232116
						CHANNELS 3 Xrotation Yrotation Zrotation
						JOINT leftLowerArm
						{
							OFFSET 27.841488 0.000000 0.000001
							CHANNELS 3 Xrotation Yrotation Zrotation
							JOINT leftHand
							{
								OFFSET 28.328808 0.000000 -0.000000
								CHANNELS 3 Xrotation Yrotation Zrotation
								JOINT leftThumbProximal
								{
									OFFSET 2.466103 -1.576202 2.681698
									CHANNELS 6 Xposition Yposition Zposition Xrotation Yrotation Zrotation
									JOINT leftThumbIntermediate
									{
										OFFSET 3.243317 -1.872528 1.872530
										CHANNELS 3 Xrotation Yrotation Zrotation
										JOINT leftThumbDistal
										{
											OFFSET 2.647881 -1.528763 1.528754
											CHANNELS 6 Xposition Yposition Zposition Xrotation Yrotation Zrotation
											JOINT leftHandThumb4
											{
												OFFSET 1.998924 -1.154083 1.154080
												CHANNELS 6 Xposition Yposition Zposition Xrotation Yrotation Zrotation
												End Site
												{
													OFFSET 1.884041 -1.149155 1.337651
												}
											}
										}
									}
								}
								JOINT leftIndexProximal
								{
									OFFSET 9.109299 -0.518005 2.259900
									CHANNELS 6 Xposition Yposition Zposition Xrotation Yrotation Zrotation
									JOINT leftIndexIntermediate
									{
										OFFSET 3.699997 0.000000 0.000000
										CHANNELS 3 Xrotation Yrotation Zrotation
										JOINT leftIndexDistal
										{
											OFFSET 2.850006 0.000000 0.000000
											CHANNELS 3 Xrotation Yrotation Zrotation
											JOINT leftHandIndex4
											{
												OFFSET 2.774895 0.000000 0.000000
												CHANNELS 3 Xrotation Yrotation Zrotation
												End Site
												{
													OFFSET 2.774902 0.000000 -0.000072
												}
											}
										}
									}
								}
								JOINT leftMiddleProximal
								{
									OFFSET 9.533401 0.000000 0.000000
									CHANNELS 6 Xposition Yposition Zposition Xrotation Yrotation Zrotation
									JOINT leftMiddleIntermediate
									{
										OFFSET 3.699997 0.000000 0.000000
										CHANNELS 3 Xrotation Yrotation Zrotation
										JOINT leftMiddleDistal
										{
											OFFSET 2.949997 0.000000 0.000000
											CHANNELS 3 Xrotation Yrotation Zrotation
											JOINT leftHandMiddle4
											{
												OFFSET 2.952896 0.000000 0.000000
												CHANNELS 3 Xrotation Yrotation Zrotation
												End Site
												{
													OFFSET 2.952904 0.000000 0.000165
												}
											}
										}
									}
								}
								JOINT leftRingProximal
								{
									OFFSET 9.104500 -0.042999 -1.865101
									CHANNELS 6 Xposition Yposition Zposition Xrotation Yrotation Zrotation
									JOINT leftRingIntermediate
									{
										OFFSET 3.149994 0.000000 0.000000
										CHANNELS 3 Xrotation Yrotation Zrotation
										JOINT leftRingDistal
										{
											OFFSET 2.950005 0.000000 0.000000
											CHANNELS 3 Xrotation Yrotation Zrotation
											JOINT leftHandRing4
											{
												OFFSET 2.644302 0.000000 0.000000
												CHANNELS 3 Xrotation Yrotation Zrotation
												End Site
												{
													OFFSET 2.644302 0.000000 0.000083
												}
											}
										}
									}
								}
								JOINT leftLittleProximal
								{
									OFFSET 8.077805 -0.486893 -3.806302
									CHANNELS 6 Xposition Yposition Zposition Xrotation Yrotation Zrotation
									JOINT leftLittleIntermediate
									{
										OFFSET 3.600006 0.000000 0.000000
										CHANNELS 3 Xrotation Yrotation Zrotation
										JOINT leftLittleDistal
										{
											OFFSET 2.099998 0.000000 0.000000
											CHANNELS 3 Xrotation Yrotation Zrotation
											JOINT leftHandPinky4
											{
												OFFSET 2.125496 0.000000 0.000000
												CHANNELS 3 Xrotation Yrotation Zrotation
												End Site
												{
													OFFSET 2.125504 0.000000 -0.001254
												}
											}
										}
									}
								}
							}
						}
					}
				}
			}
		}
	}
	JOINT rightUpperLeg
	{
		OFFSET -8.207800 -6.751701 -1.599544
		CHANNELS 6 Xposition Yposition Zposition Xrotation Yrotation Zrotation
		JOINT rightLowerLeg
		{
			OFFSET 0.000004 -44.370152 0.345934
			CHANNELS 3 Xrotation Yrotation Zrotation
			JOINT rightFoot
			{
				OFFSET 0.000004 -44.423664 -3.043535
				CHANNELS 3 Xrotation Yrotation Zrotation
				JOINT rightToes
				{
					OFFSET 0.000001 -8.728691 10.710592
					CHANNELS 3 Xrotation Yrotation Zrotation
					JOINT rightToesEnd
					{
						OFFSET 0.000000 -0.000665 9.278101
						CHANNELS 3 Xrotation Yrotation Zrotation
						End Site
						{
							OFFSET 0.000000 -0.000665 9.278103
						}
					}
				}
			}
		}
	}
	JOINT leftUpperLeg
	{
		OFFSET 8.207800 -6.751701 -1.599544
		CHANNELS 6 Xposition Yposition Zposition Xrotation Yrotation Zrotation
		JOINT leftLowerLeg
		{
			OFFSET 0.000004 -44.370037 0.346940
			CHANNELS 3 Xrotation Yrotation Zrotation
			JOINT leftFoot
			{
				OFFSET 0.000004 -44.423611 -3.044388
				CHANNELS 3 Xrotation Yrotation Zrotation
				JOINT leftToes
				{
					OFFSET 0.000001 -8.728690 10.710592
					CHANNELS 3 Xrotation Yrotation Zrotation
					JOINT leftToesEnd
					{
						OFFSET 0.000000 -0.000680 9.278101
						CHANNELS 3 Xrotation Yrotation Zrotation
						End Site
						{
							OFFSET 0.000000 -0.000680 9.278101
						}
					}
				}
			}
		}
	}
}
MOTION
Frames: 4
Frame Time: 0.033333
-6.040962 97.121902 349.199707 -0.920724 -1.106603 7.490978 -0.000000 10.181553 0.131552 -1.158322 0.476771 -3.803278 2.682343 -0.058305 -2.292861 2.682243 -0.054199 -2.293407 0.000000 16.740379 -2.048991 -4.629301 -1.806199 -2.476336 -0.000001 9.617858 1.684957 -2.042943 5.088212 5.570131 -0.000002 22.037369 7.501024 -0.000000 0.000000 0.000000 -4.570000 11.014885 -2.160824 1.166988 8.610463 5.751456 11.492566 -19.826951 77.773151 -0.000016 29.557640 0.000033 21.782742 -5.448283 -13.582098 -2.464798 -1.573997 2.681925 -12.785386 -6.782198 -26.230886 22.707669 -20.167990 13.530184 -2.646271 -1.527810 1.527793 -6.756774 15.875993 -1.654736 -1.994593 -1.151580 1.151623 -0.000000 -0.000001 -0.000002 -9.108307 -0.517857 2.259868 -0.383561 2.313211 8.028703 0.748672 -3.143542 26.785897 0.273029 -1.933051 16.078066 -0.000001 0.000000 0.000002 -9.532490 -0.000001 0.000033 -0.121730 -0.782535 -6.130458 0.293675 -2.003078 16.677959 1.221700 0.236924 -2.361262 -0.000000 0.000000 -0.000000 -9.103597 -0.043083 -1.865036 -0.476202 -2.376665 -9.423459 0.729487 -3.105303 26.433846 -0.779629 0.064082 -0.472262 0.000000 0.000000 -0.000001 -8.076698 -0.486710 -3.806237 -1.305389 -12.611920 -6.617932 0.652370 -2.945357 24.972985 0.285587 -1.975996 16.445654 0.000000 0.000000 -0.000000 4.570402 11.014674 -2.160790 3.089434 -12.641937 -8.730005 -22.192333 42.122497 -70.860720 0.000017 -28.349533 0.000015 -5.792643 1.303138 54.536373 2.466087 -1.576195 2.681694 -4.466010 10.968902 8.593548 11.558870 23.589431 -7.387876 2.647884 -1.528732 1.528749 1.368345 -2.058432 -0.916736 1.998906 -1.154116 1.154078 0.000001 0.000000 -0.000002 9.109292 -0.518009 2.259911 1.941032 -6.011067 22.576359 0.933894 3.467631 -30.139576 0.371839 2.236354 -18.880173 0.000003 -0.000001 -0.000001 9.533389 0.000019 -0.000018 -1.532891 2.539806 22.008072 0.259996 1.877938 -15.764731 0.542273 2.683054 -22.849517 0.000000 -0.000003 -0.000000 9.104489 -0.042992 -1.865122 -2.507956 5.611174 20.706277 0.699990 3.029798 -26.013686 0.037713 0.721240 -5.987579 0.000001 -0.000001 -0.000001 8.077796 -0.486915 -3.806298 -1.439430 10.894518 8.022727 0.071386 -3.006161 -9.230505 0.737467 3.105314 -26.714046 -0.000000 0.000001 -0.000002 -8.207801 -6.751698 -1.599532 -54.323145 8.928334 -2.247190 111.276213 -9.017824 -0.632678 29.098682 -2.281441 4.045095 -4.097241 0.000004 -0.000003 0.000001 0.000000 -0.000001 8.207803 -6.751698 -1.599519 -3.664819 4.575913 -17.600778 29.734716 2.040041 0.554544 -20.253336 -2.009943 9.234890 -8.083722 -0.000002 0.000000 -0.000000 0.000000 0.000000 
-6.505793 98.428627 352.059143 -0.669772 2.172692 5.314309 -0.000003 10.181534 0.131544 -0.226298 -2.376906 -3.241325 2.810273 -0.380384 -1.535769 2.803024 -0.381850 -1.547192 -0.000000 16.740370 -2.049090 -5.311734 -1.944498 -1.550063 0.000003 9.617859 1.684934 -3.852931 5.891639 5.335633 0.000001 22.037369 7.501079 -0.000001 -0.000000 -0.000000 -4.569999 11.014852 -2.160912 1.051968 6.993068 6.319480 13.910224 -22.717846 77.250642 -0.000014 27.918938 0.000028 19.053397 -4.849815 -10.248736 -2.464805 -1.573994 2.681964 -12.962367 -6.232005 -27.886474 21.354597 -17.645331 12.941387 -2.646244 -1.527802 1.527857 -6.944994 16.341977 -1.597435 -1.994578 -1.151573 1.151591 0.000002 0.000001 -0.000002 -9.108305 -0.517880 2.259836 -0.462358 1.430409 12.225417 0.757980 -3.161902 26.955176 0.236193 -1.800349 14.946844 0.000001 0.000000 0.000003 -9.532509 0.000001 0.000026 -0.012776 -1.376718 -0.607215 0.335478 -2.137700 17.836049 1.238812 0.247409 -2.473070 -0.000000 -0.000001 -0.000001 -9.103599 -0.043105 -1.865074 -0.408909 -3.742172 -5.985002 0.912213 -3.447970 29.630156 -0.773033 0.166441 -1.227409 -0.000000 0.000001 0.000000 -8.076696 -0.486739 -3.806252 -0.943674 -12.464117 -5.071632 1.081525 -3.729357 32.334334 0.301728 -2.029910 16.908041 -0.000001 0.000001 0.000000 4.570402 11.014684 -2.160899 3.179665 -13.004877 -8.758717 -26.928251 35.848822 -70.871170 0.000008 -28.184033 0.000008 -2.436334 5.844569 45.860267 2.466100 -1.576262 2.681650 -5.620067 9.689700 15.418102 11.339613 23.110708 -7.245555 2.647946 -1.528713 1.528744 1.490338 -1.690497 -0.990505 1.998897 -1.154138 1.154068 0.000005 -0.000003 0.000002 9.109293 -0.518044 2.259850 1.105181 -4.857906 15.648223 0.853082 3.324812 -28.775536 0.357993 2.195454 -18.521873 0.000002 -0.000003 0.000001 9.533393 -0.000046 -0.000040 -0.408244 0.274033 17.353856 0.387938 2.282825 -19.288289 0.516069 2.620085 -22.283328 0.000002 -0.000001 -0.000004 9.104500 -0.043016 -1.865140 -1.091392 3.634844 14.071113 0.791742 3.210761 -27.699395 0.023398 0.568377 -4.715215 -0.000004 0.000005 -0.000004 8.077802 -0.486950 -3.806335 -1.602778 10.043279 9.372969 0.171427 -2.507638 -13.439762 0.703386 3.036773 -26.078002 0.000003 -0.000004 -0.000001 -8.207805 -6.751717 -1.599514 -56.397808 6.665632 -1.255700 104.832236 -9.184585 -0.683018 27.362651 -2.279987 3.974464 -8.403859 -0.000001 0.000000 -0.000002 0.000000 0.000000 8.207798 -6.751713 -1.599532 -1.722684 4.687696 -14.576392 28.248839 -0.745869 1.295753 -15.874475 -1.682120 9.002874 -12.910471 -0.000001 -0.000001 0.000000 0.000000 0.000000 
-6.903003 99.864326 354.774872 -0.312270 4.797019 2.890709 0.000001 10.181557 0.131500 1.257734 -4.831795 -2.386223 2.701723 -0.651932 -0.668004 2.695163 -0.656467 -0.688012 -0.000000 16.740328 -2.049046 -6.155512 -2.017650 -0.636108 -0.000002 9.617878 1.684947 -5.420930 7.065377 4.991369 -0.000002 22.037369 7.501095 0.000000 -0.000000 -0.000000 -4.570001 11.014857 -2.160883 0.946338 5.210565 6.956381 15.366454 -26.091299 76.072707 -0.000003 26.309399 0.000020 15.380223 -2.613210 -7.997149 -2.464814 -1.574003 2.681916 -12.877339 -6.626929 -28.332328 20.312885 -15.626762 12.499417 -2.646234 -1.527812 1.527824 -7.097084 16.717443 -1.550834 -1.994601 -1.151586 1.151543 0.000000 0.000001 -0.000002 -9.108314 -0.517895 2.259765 -0.504811 0.467409 18.037505 0.804705 -3.252014 27.790484 0.217576 -1.729133 14.342245 -0.000001 -0.000002 0.000001 -9.532499 -0.000020 0.000004 0.200718 -2.131309 6.548708 0.504199 -2.604062 21.913035 1.249075 0.143527 -1.437881 0.000000 -0.000001 0.000000 -9.103606 -0.043109 -1.865096 -0.109910 -5.458489 -1.480876 1.169919 -3.865171 33.669062 -0.764334 0.158136 -1.167561 0.000001 -0.000000 0.000000 -8.076705 -0.486725 -3.806299 -0.591240 -11.919301 -3.568910 1.530402 -4.356809 38.694415 0.325055 -2.105026 17.554170 -0.000001 -0.000001 -0.000000 4.570403 11.014637 -2.160835 3.150531 -13.028643 -8.687348 -30.106033 30.899011 -71.109407 -0.000016 -29.823499 -0.000015 -3.605233 10.849770 31.979239 2.466086 -1.576190 2.681707 -5.632188 11.311802 21.621761 11.153140 22.697671 -7.124647 2.647916 -1.528731 1.528710 1.632390 -1.266809 -1.075915 1.998902 -1.154077 1.154123 -0.000002 0.000003 -0.000000 9.109296 -0.518012 2.259926 0.380580 -3.527344 6.826293 0.789055 3.205642 -27.651466 0.344095 2.153580 -18.155736 0.000001 0.000001 -0.000000 9.533388 0.000002 0.000022 -0.000234 -0.660155 10.984699 0.518135 2.625120 -22.328491 0.484378 2.541433 -21.579318 -0.000002 -0.000002 -0.000000 9.104488 -0.042995 -1.865088 -0.384781 2.486953 7.670944 0.923255 3.449261 -29.963108 0.013544 0.432718 -3.588029 0.000002 -0.000002 0.000001 8.077802 -0.486902 -3.806268 -1.706920 8.274636 11.474882 0.443311 -1.631818 -21.034138 0.671777 2.971409 -25.474910 0.000001 -0.000002 -0.000001 -8.207797 -6.751682 -1.599584 -56.176858 4.115870 -0.260934 94.763868 -9.081172 -0.591474 23.119430 -1.613355 2.727328 -12.286156 -0.000006 0.000003 0.000004 0.000000 -0.000000 8.207800 -6.751687 -1.599608 0.008558 5.087126 -11.263664 26.254168 -3.038858 1.917387 -10.608523 -1.255730 8.564846 -15.596179 -0.000002 -0.000002 0.000000 0.000000 0.000000 
-7.300169 101.206383 357.495636 0.154080 6.339978 0.415347 -0.000002 10.181571 0.131533 2.735347 -6.690479 -1.478440 2.585086 -0.866308 0.251330 2.586084 -0.869153 0.225688 0.000000 16.740360 -2.048981 -7.045900 -1.997718 0.198653 0.000002 9.617853 1.684977 -6.597263 8.580447 4.737578 -0.000006 22.037354 7.501049 -0.000001 -0.000000 -0.000000 -4.570003 11.014860 -2.160817 0.874303 3.571477 7.584946 15.367502 -29.561281 74.140010 -0.000020 24.255363 0.000042 11.561153 0.097925 -7.020955 -2.464802 -1.574005 2.681934 -12.558165 -7.888038 -28.054927 19.649655 -14.311611 12.220008 -2.646289 -1.527812 1.527789 -7.187558 16.939848 -1.523403 -1.994613 -1.151597 1.151565 0.000001 -0.000000 -0.000000 -9.108292 -0.517883 2.259827 -0.553721 -0.264335 24.360119 0.910765 -3.445440 29.606158 0.219590 -1.737010 14.409105 -0.000000 -0.000001 0.000004 -9.532494 0.000009 0.000022 0.608766 -3.177631 15.047936 0.908825 -3.442012 29.573732 1.220345 -0.094880 0.945714 0.000000 -0.000002 0.000001 -9.103590 -0.043121 -1.865043 0.550465 -7.168094 4.174867 1.510160 -4.331482 38.427221 -0.757513 0.017380 -0.128454 0.000001 0.000002 -0.000001 -8.076698 -0.486724 -3.806258 -0.266944 -11.147109 -2.059608 1.951848 -4.834604 43.950502 0.357217 -2.204057 18.409786 0.000002 0.000001 -0.000000 4.570402 11.014688 -2.160792 2.991234 -12.714898 -8.476745 -31.539464 26.815876 -71.247493 0.000002 -33.022998 0.000024 -6.091262 18.168634 14.226896 2.466077 -1.576232 2.681684 -5.285918 14.692143 25.584763 11.007961 22.372228 -7.030579 2.647904 -1.528733 1.528713 1.825781 -0.698004 -1.191322 1.998890 -1.154090 1.154070 0.000001 -0.000000 0.000002 9.109291 -0.518024 2.259882 -0.341394 -2.372481 -7.165228 0.761996 3.153510 -27.163343 0.334119 2.122933 -17.888306 0.000003 0.000001 -0.000004 9.533386 -0.000027 -0.000021 -0.043432 0.428333 3.854887 0.630669 2.883667 -24.670201 0.451601 2.457012 -20.827569 0.000002 -0.000003 0.000001 9.104485 -0.043022 -1.865110 -0.123755 2.562856 2.779439 1.087055 3.718437 -32.583189 0.008133 0.335123 -2.777988 -0.000002 0.000002 -0.000002 8.077785 -0.486946 -3.806286 -1.549621 6.328711 12.883928 0.893458 -0.683267 -29.733337 0.656391 2.938940 -25.176514 0.000000 -0.000001 -0.000000 -8.207800 -6.751693 -1.599529 -53.701034 2.189935 1.476804 81.263146 -8.953038 -0.425994 19.031014 0.224938 2.899415 -11.168940 -0.000002 -0.000000 0.000002 0.000000 0.000000 8.207800 -6.751698 -1.599564 1.635740 5.890902 -7.842375 23.879514 -4.985888 2.112230 -5.036121 -0.777474 8.180573 -19.519490 0.000154 -0.003465 -0.000000 0.000000 0.000000 
